<svg width="387" height="409" viewBox="0 0 387 409" fill="none" xmlns="http://www.w3.org/2000/svg">
<g opacity="0.03" clip-path="url(#clip0_2_216)">
<path d="M269.253 158.409C304.045 158.409 332.251 130.23 332.251 95.4698C332.251 60.7094 304.045 32.5306 269.253 32.5306C234.46 32.5306 206.255 60.7094 206.255 95.4698C206.255 130.23 234.46 158.409 269.253 158.409Z" fill="#E8F1F9"/>
<path d="M206.255 95.4698C206.255 78.7773 212.892 62.7684 224.706 50.965C236.521 39.1617 252.545 32.5306 269.253 32.5306" stroke="#95B5E8" stroke-width="2" stroke-miterlimit="10"/>
<path d="M269.253 15.706V0" stroke="#95B5E8" stroke-width="2" stroke-miterlimit="10"/>
<path d="M269.253 27.2209V21.6133" stroke="#95B5E8" stroke-width="2" stroke-miterlimit="10"/>
<path d="M269.253 175.711V191.417" stroke="#95B5E8" stroke-width="2" stroke-miterlimit="10"/>
<path d="M269.253 164.196V169.803" stroke="#95B5E8" stroke-width="2" stroke-miterlimit="10"/>
<path d="M248.527 18.432L244.458 3.2612" stroke="#95B5E8" stroke-width="2" stroke-miterlimit="10"/>
<path d="M251.51 29.5546L250.058 24.1381" stroke="#95B5E8" stroke-width="2" stroke-miterlimit="10"/>
<path d="M289.978 172.985L294.047 188.156" stroke="#95B5E8" stroke-width="2" stroke-miterlimit="10"/>
<path d="M286.995 161.862L288.448 167.279" stroke="#95B5E8" stroke-width="2" stroke-miterlimit="10"/>
<path d="M229.214 26.4243L221.354 12.8225" stroke="#95B5E8" stroke-width="2" stroke-miterlimit="10"/>
<path d="M234.977 36.3965L232.171 31.5402" stroke="#95B5E8" stroke-width="2" stroke-miterlimit="10"/>
<path d="M309.291 164.992L317.152 178.594" stroke="#95B5E8" stroke-width="2" stroke-miterlimit="10"/>
<path d="M303.528 155.02L306.335 159.877" stroke="#95B5E8" stroke-width="2" stroke-miterlimit="10"/>
<path d="M212.63 39.1382L201.513 28.0323" stroke="#95B5E8" stroke-width="2" stroke-miterlimit="10"/>
<path d="M220.779 47.2805L216.811 43.3153" stroke="#95B5E8" stroke-width="2" stroke-miterlimit="10"/>
<path d="M325.876 152.279L336.992 163.384" stroke="#95B5E8" stroke-width="2" stroke-miterlimit="10"/>
<path d="M317.726 144.136L321.695 148.102" stroke="#95B5E8" stroke-width="2" stroke-miterlimit="10"/>
<path d="M199.904 55.7072L186.289 47.8542" stroke="#95B5E8" stroke-width="2" stroke-miterlimit="10"/>
<path d="M209.885 61.4647L205.025 58.6609" stroke="#95B5E8" stroke-width="2" stroke-miterlimit="10"/>
<path d="M338.602 135.71L352.216 143.563" stroke="#95B5E8" stroke-width="2" stroke-miterlimit="10"/>
<path d="M328.62 129.952L333.481 132.756" stroke="#95B5E8" stroke-width="2" stroke-miterlimit="10"/>
<path d="M191.904 75.0023L176.719 70.9373" stroke="#95B5E8" stroke-width="2" stroke-miterlimit="10"/>
<path d="M203.037 77.9826L197.615 76.5312" stroke="#95B5E8" stroke-width="2" stroke-miterlimit="10"/>
<path d="M346.601 116.415L361.786 120.48" stroke="#95B5E8" stroke-width="2" stroke-miterlimit="10"/>
<path d="M335.468 113.434L340.89 114.886" stroke="#95B5E8" stroke-width="2" stroke-miterlimit="10"/>
<path d="M189.176 95.7084H173.455" stroke="#95B5E8" stroke-width="2" stroke-miterlimit="10"/>
<path d="M200.701 95.7084H195.088" stroke="#95B5E8" stroke-width="2" stroke-miterlimit="10"/>
<path d="M349.33 95.7084H365.051" stroke="#95B5E8" stroke-width="2" stroke-miterlimit="10"/>
<path d="M337.804 95.7084H343.417" stroke="#95B5E8" stroke-width="2" stroke-miterlimit="10"/>
<path d="M191.904 116.415L176.719 120.48" stroke="#95B5E8" stroke-width="2" stroke-miterlimit="10"/>
<path d="M203.037 113.434L197.615 114.886" stroke="#95B5E8" stroke-width="2" stroke-miterlimit="10"/>
<path d="M346.601 75.0023L361.786 70.9373" stroke="#95B5E8" stroke-width="2" stroke-miterlimit="10"/>
<path d="M335.468 77.9826L340.89 76.5312" stroke="#95B5E8" stroke-width="2" stroke-miterlimit="10"/>
<path d="M199.904 135.71L186.289 143.563" stroke="#95B5E8" stroke-width="2" stroke-miterlimit="10"/>
<path d="M209.885 129.952L205.025 132.756" stroke="#95B5E8" stroke-width="2" stroke-miterlimit="10"/>
<path d="M338.602 55.7072L352.216 47.8542" stroke="#95B5E8" stroke-width="2" stroke-miterlimit="10"/>
<path d="M328.62 61.4647L333.481 58.6609" stroke="#95B5E8" stroke-width="2" stroke-miterlimit="10"/>
<path d="M212.63 152.279L201.513 163.384" stroke="#95B5E8" stroke-width="2" stroke-miterlimit="10"/>
<path d="M220.779 144.136L216.811 148.102" stroke="#95B5E8" stroke-width="2" stroke-miterlimit="10"/>
<path d="M325.876 39.1382L336.992 28.0323" stroke="#95B5E8" stroke-width="2" stroke-miterlimit="10"/>
<path d="M317.726 47.2805L321.695 43.3153" stroke="#95B5E8" stroke-width="2" stroke-miterlimit="10"/>
<path d="M229.214 164.992L221.354 178.594" stroke="#95B5E8" stroke-width="2" stroke-miterlimit="10"/>
<path d="M234.977 155.02L232.171 159.877" stroke="#95B5E8" stroke-width="2" stroke-miterlimit="10"/>
<path d="M309.291 26.4243L317.152 12.8225" stroke="#95B5E8" stroke-width="2" stroke-miterlimit="10"/>
<path d="M303.528 36.3965L306.335 31.5402" stroke="#95B5E8" stroke-width="2" stroke-miterlimit="10"/>
<path d="M248.527 172.985L244.458 188.156" stroke="#95B5E8" stroke-width="2" stroke-miterlimit="10"/>
<path d="M251.51 161.862L250.058 167.279" stroke="#95B5E8" stroke-width="2" stroke-miterlimit="10"/>
<path d="M289.978 18.432L294.047 3.2612" stroke="#95B5E8" stroke-width="2" stroke-miterlimit="10"/>
<path d="M286.995 29.5546L288.448 24.1381" stroke="#95B5E8" stroke-width="2" stroke-miterlimit="10"/>
<path d="M158.215 165.956C158.215 165.956 165.555 158.669 170.749 164.319C175.943 169.969 166.109 177.253 157.661 179.976" fill="#F2C0C0"/>
<path d="M145.334 184.698L140.625 167.806L114.448 154.762C114.448 154.762 91.9909 154.643 115.828 193.285C139.404 231.505 154.475 209.959 160.015 193.285L145.334 184.698Z" fill="#FFD6D2"/>
<path d="M154.74 204.701C164.517 192.109 161.279 171.65 159.783 170.557C160.94 170.994 163.89 172.04 165.278 172.725C167.217 173.682 166.109 164.296 159.461 164.319C152.813 164.343 145.334 184.698 145.334 184.698" fill="#FFD6D2"/>
<path d="M114.785 140.644L114.785 140.644C118.882 138.873 123.515 138.801 127.666 140.443C131.816 142.085 135.143 145.308 136.916 149.401L145.496 169.216L114.601 182.569L106.021 162.754C104.248 158.661 104.176 154.032 105.82 149.886C107.463 145.739 110.688 142.415 114.785 140.644Z" fill="#CE4D69"/>
<path d="M118.439 209.493C118.439 209.493 163.588 279.208 169.197 396.266L175.528 401.052L146.984 408.481L112.331 309.195L88.6865 281.498L95.3346 204.701" fill="#FFCF83"/>
<path d="M146.984 408.481L175.528 401.052L169.198 396.266C168.273 376.748 166.158 357.304 162.863 338.043L125.427 346.718L146.984 408.481Z" fill="#FFD6D2"/>
<path d="M169.198 396.266L175.527 401.052L146.984 408.481" fill="#5A3C2A"/>
<path d="M146.984 408.481L175.527 401.052L169.198 396.266" fill="#5A3C2A"/>
<path d="M91.6355 247.433L88.6865 281.498L112.331 309.195L125.891 348.047C127.58 339.909 128.424 331.62 128.41 323.309C128.41 287.005 112.82 256.457 91.6355 247.433Z" fill="#5A3C2A"/>
<path d="M102.917 211.038L64.9898 209.908C51.3452 259.429 69.8903 301.812 69.8903 301.812L69.1627 408.481H100.37L96.2261 401.898C129.316 287.887 102.917 211.038 102.917 211.038Z" fill="#FFCF83"/>
<path d="M61.4882 226.645C62.8367 226.682 64.2022 226.701 65.5846 226.702C83.3816 226.702 98.6512 223.54 105.173 219.035C103.863 213.795 102.917 211.038 102.917 211.038L64.9898 209.908C63.4774 215.409 62.308 220.999 61.4882 226.645Z" fill="#5A3C2A"/>
<path d="M69.5749 348.047L69.1627 408.481H100.37L96.2261 401.898C101.376 384.222 105.385 366.235 108.229 348.047H69.5749Z" fill="#FFD6D2"/>
<path d="M69.1627 408.481H100.37L96.2263 401.898" fill="#5A3C2A"/>
<path d="M69.1627 408.481H100.37L96.2263 401.898" fill="#5A3C2A"/>
<path d="M96.2261 401.898C115.693 334.825 114.57 280.614 110.347 247.345" stroke="#5A3C2A" stroke-miterlimit="10"/>
<path d="M52.4131 140.744L63.5926 214.267L118.44 209.493L128.41 140.744C82.0808 119.232 52.4131 140.744 52.4131 140.744Z" fill="#CE4D69"/>
<path d="M118.44 209.493L125.631 159.903" stroke="white" stroke-miterlimit="10"/>
<path d="M170.749 166.51C170.749 166.51 158.146 167.755 159.461 191.417C160.777 215.079 142.287 218.86 132.107 211.884C121.927 204.908 107.664 200.036 107.212 228.105C106.761 256.175 89.3791 338.369 0.183594 333.111" stroke="#95B5E8" stroke-width="12" stroke-miterlimit="10"/>
<path d="M62.5884 207.662C69.5773 201.447 74.197 190.732 74.197 178.548C74.197 161.369 65.0168 147.107 52.9498 144.273L62.5884 207.662Z" fill="#5A3C2A"/>
<path d="M36.8381 167.806C36.8381 167.806 13.8855 211.148 50.2522 220.06C94.2959 230.853 123.832 213.324 123.416 210.418C123.001 207.513 109.854 208.772 109.854 208.772C109.854 208.772 105.928 204.738 102.917 209.908L56.6925 193.285L63.9639 179.586" fill="#FFD6D2"/>
<path d="M50.2522 220.06C94.296 230.853 123.832 213.324 123.416 210.418" stroke="#5A3C2A" stroke-miterlimit="10"/>
<path d="M102.917 209.908L56.6925 193.285" stroke="white" stroke-miterlimit="10"/>
<path d="M80.6362 114.48H98.738V134.71C98.738 137.108 97.7844 139.408 96.0871 141.104C94.3897 142.8 92.0876 143.752 89.6871 143.752C87.2867 143.752 84.9846 142.8 83.2872 141.104C81.5898 139.408 80.6362 137.108 80.6362 134.71V114.48H80.6362Z" fill="#FFD6D2"/>
<path d="M98.7379 131.183C91.1309 130.087 85.4564 125.823 85.4564 120.727C85.4564 118.396 86.6475 116.24 88.664 114.48H98.7379V131.183Z" fill="#5A3C2A"/>
<path d="M104.6 115.443C104.148 115.443 103.716 115.264 103.397 114.946C103.078 114.627 102.899 114.195 102.899 113.744V112.125C102.899 111.584 103.114 111.065 103.497 110.682C103.88 110.299 104.399 110.084 104.941 110.084C105.483 110.084 106.002 110.299 106.386 110.682C106.769 111.065 106.984 111.584 106.984 112.125V113.061C106.984 113.693 106.733 114.299 106.285 114.746C105.838 115.192 105.232 115.443 104.6 115.443V115.443Z" fill="#F2C0C0"/>
<path d="M106.007 101.999C106.007 101.999 105.325 117.399 104.941 121.469C104.597 125.118 103.593 103.775 103.593 103.775" fill="#5A3C2A"/>
<path d="M102.658 98.6724C104.429 101.635 105.195 105.091 104.841 108.524C104.684 110.458 104.656 112.401 104.757 114.338C104.975 119.257 102.923 123.852 98.738 126.052C97.0546 126.937 93.4241 127.411 90.6995 126.576C85.7555 125.06 80.7508 121.788 80.61 113.724C80.5741 111.497 80.2614 109.284 79.679 107.135C79.1704 105.265 79.0242 102.549 80.5001 99.1915C83.7555 91.7866 96.604 88.8756 102.658 98.6724Z" fill="#FFD6D2"/>
<path d="M104.941 94.625C101.359 89.9893 89.9728 86.7377 80.6362 93.5872C72.8993 99.2628 80.1127 116.07 80.6362 116.903L80.6362 115.237L83.3542 106.317C83.562 106.179 89.2915 105.556 93.1788 102.443L90.4178 105.902C90.4178 105.902 101.529 104.232 102.899 99.0824C103.882 100.789 104.513 102.674 104.756 104.628C104.756 104.628 108.523 99.2604 104.941 94.625Z" fill="#5A3C2A"/>
<path d="M104.757 114.338C104.757 114.338 108.423 133.093 97.1353 134.269C86.0653 135.422 80.4879 128.137 83.0873 113.629C83.1921 113.06 83.1704 112.474 83.0236 111.914L78.6106 106.11L84.2546 104.864C84.2546 104.864 83.5513 118.165 86.7769 119.506C90.0024 120.847 89.3403 116.199 93.6727 116.568C96.9265 116.845 99.0011 115.71 100.128 118.434C101.256 121.158 105.193 119.142 104.757 114.338Z" fill="#5A3C2A"/>
<path d="M89.3403 114.338C89.6897 114.338 89.9729 113.966 89.9729 113.507C89.9729 113.047 89.6897 112.675 89.3403 112.675C88.9909 112.675 88.7076 113.047 88.7076 113.507C88.7076 113.966 88.9909 114.338 89.3403 114.338Z" fill="#5A3C2A"/>
<path d="M100.761 114.338C101.11 114.338 101.394 113.966 101.394 113.507C101.394 113.047 101.11 112.675 100.761 112.675C100.412 112.675 100.128 113.047 100.128 113.507C100.128 113.966 100.412 114.338 100.761 114.338Z" fill="#5A3C2A"/>
<path d="M94.8176 116.568H95.5444C95.6695 116.568 95.7896 116.518 95.8781 116.43C95.9666 116.342 96.0163 116.222 96.0163 116.097V108.883" stroke="#5A3C2A" stroke-miterlimit="10"/>
<path d="M97.6405 118.434C96.9537 119.12 96.0221 119.506 95.0507 119.506C94.0793 119.506 93.1477 119.12 92.4608 118.434" stroke="white" stroke-miterlimit="10"/>
<path d="M86.7505 107.932C87.4374 107.246 88.369 106.86 89.3403 106.86C90.3117 106.86 91.2433 107.246 91.9302 107.932" stroke="#5A3C2A" stroke-width="2" stroke-miterlimit="10"/>
<path d="M98.1711 107.932C98.858 107.246 99.7896 106.86 100.761 106.86C101.732 106.86 102.664 107.246 103.351 107.932" stroke="#5A3C2A" stroke-width="2" stroke-miterlimit="10"/>
<path d="M101.251 101.485C101.276 101.483 101.302 101.482 101.327 101.48C101.288 101.459 101.261 101.445 101.261 101.445C101.258 101.459 101.254 101.472 101.251 101.485Z" fill="#5A3C2A"/>
<path d="M81.0324 109.995C81.5742 109.995 82.0937 110.21 82.4767 110.593C82.8598 110.976 83.075 111.495 83.075 112.036V113.655C83.075 114.106 82.8958 114.538 82.5768 114.857C82.2578 115.176 81.8252 115.355 81.3741 115.355C80.7418 115.355 80.1353 115.104 79.6882 114.657C79.2411 114.21 78.9899 113.604 78.9899 112.973V112.036C78.9899 111.768 79.0427 111.503 79.1454 111.255C79.248 111.008 79.3985 110.783 79.5881 110.593C79.7778 110.404 80.003 110.253 80.2508 110.151C80.4986 110.048 80.7642 109.995 81.0324 109.995Z" fill="#FFD6D2"/>
<path d="M67.9673 141.367L67.9673 141.367C69.8848 142.466 71.567 143.931 72.9178 145.679C74.2686 147.426 75.2616 149.423 75.84 151.554C76.4185 153.686 76.5711 155.91 76.2892 158.1C76.0073 160.29 75.2963 162.403 74.1969 164.319L63.4481 183.049L34.2452 166.321L44.994 147.591C47.2144 143.722 50.8821 140.893 55.1905 139.726C59.4988 138.559 64.0947 139.149 67.9673 141.367Z" fill="#CE4D69"/>
<path d="M74.1972 164.319L63.448 183.049L34.2451 166.321" stroke="white" stroke-miterlimit="10"/>
<path d="M168.672 162.07L169.408 169.494C169.425 169.664 169.457 169.833 169.505 169.998C169.608 170.355 169.781 170.689 170.013 170.98C170.246 171.271 170.534 171.513 170.86 171.692C171.186 171.872 171.545 171.985 171.915 172.026C172.286 172.066 172.66 172.034 173.018 171.929L176.22 170.995L184.253 172.725L187.439 165.437C180.721 160.525 168.672 162.07 168.672 162.07Z" fill="#95B5E8"/>
<path d="M187.44 174.409C187.44 174.409 188.022 174.727 188.995 175.345" stroke="#5A3C2A" stroke-miterlimit="10"/>
<path d="M192.146 177.522C198.804 182.484 210.025 193.175 208.667 208.136" stroke="#5A3C2A" stroke-miterlimit="10" stroke-dasharray="7.38 7.38"/>
<path d="M208.429 210.037C208.335 210.626 208.222 211.22 208.088 211.821" stroke="#5A3C2A" stroke-miterlimit="10"/>
<path d="M188.747 171.595C189.098 171.872 212.098 183.693 214.289 205.128" stroke="#5A3C2A" stroke-miterlimit="10" stroke-dasharray="7 7"/>
<path d="M189.21 168.879C189.21 168.879 208.121 173.021 218.541 199.743" stroke="#5A3C2A" stroke-miterlimit="10" stroke-dasharray="7 7"/>
<path d="M191.535 166.51C191.535 166.51 211.415 171.811 219.957 193.443" stroke="#5A3C2A" stroke-miterlimit="10" stroke-dasharray="7 7"/>
<path d="M141.456 194.53C141.456 194.53 151.359 164.319 159.461 164.319" stroke="#5A3C2A" stroke-miterlimit="10"/>
<path d="M156.207 183.945C165.983 171.353 161.28 171.65 159.783 170.557C160.94 170.994 163.89 172.04 165.278 172.725C167.217 173.682 166.109 164.296 159.461 164.319" fill="#FFD6D2"/>
<path d="M348.835 408.481C355.04 393.804 358.661 376.147 358.661 357.146C358.671 348.83 357.958 340.529 356.532 332.337L243.452 339.254C242.72 345.19 242.354 351.165 242.356 357.146C242.356 376.147 245.977 393.804 252.181 408.481H348.835Z" fill="#D7E8F7"/>
<path d="M351.815 372.962L342.042 382.813L323.798 363.523L307.183 390.538L292.848 373.938L277.862 390.538L259.618 366.778L243.872 378.148C245.35 388.568 248.142 398.761 252.181 408.481H348.835C352.693 399.203 355.409 389.492 356.923 379.56L351.815 372.962Z" fill="#E8F1F9"/>
<path d="M242.356 357.146C242.356 376.147 245.977 393.804 252.181 408.481" stroke="#95B5E8" stroke-width="2" stroke-miterlimit="10"/>
<path d="M348.835 408.481C355.04 393.804 358.661 376.147 358.661 357.146" stroke="#95B5E8" stroke-width="2" stroke-miterlimit="10"/>
<path d="M214.017 408.481H387" stroke="#95B5E8" stroke-width="2" stroke-miterlimit="10"/>
<path d="M247.269 295.027C247.503 300.363 248.957 305.574 251.519 310.262C254.08 314.95 257.682 318.989 262.047 322.072C266.413 325.155 271.426 327.199 276.704 328.047C281.982 328.895 287.384 328.526 292.497 326.966C292.263 321.631 290.809 316.419 288.247 311.732C285.686 307.044 282.084 303.004 277.719 299.921C273.353 296.838 268.34 294.795 263.062 293.946C257.784 293.098 252.381 293.468 247.269 295.027Z" fill="#D7E8F7"/>
<path d="M350.487 279.146C350.252 284.482 348.798 289.693 346.237 294.381C343.675 299.069 340.074 303.108 335.708 306.191C331.343 309.274 326.329 311.318 321.051 312.166C315.773 313.014 310.371 312.645 305.258 311.085C305.493 305.75 306.947 300.538 309.508 295.85C312.07 291.163 315.671 287.123 320.037 284.04C324.402 280.957 329.416 278.914 334.694 278.065C339.972 277.217 345.374 277.587 350.487 279.146Z" fill="#D7E8F7"/>
<path d="M297.735 254.812V348.551" stroke="#95B5E8" stroke-width="2" stroke-miterlimit="10"/>
<path d="M299.038 231.296C303.491 231.296 307.101 225.067 307.101 217.382C307.101 209.698 303.491 203.468 299.038 203.468C294.585 203.468 290.975 209.698 290.975 217.382C290.975 225.067 294.585 231.296 299.038 231.296Z" fill="#D7E8F7"/>
<path d="M297.572 271.331C302.025 271.331 305.635 265.101 305.635 257.416C305.635 249.732 302.025 243.502 297.572 243.502C293.119 243.502 289.509 249.732 289.509 257.416C289.509 265.101 293.119 271.331 297.572 271.331Z" fill="#D7E8F7"/>
<path d="M295.886 231.748C299.742 229.523 299.751 222.325 295.905 215.67C292.059 209.015 285.815 205.423 281.958 207.648C278.102 209.872 278.093 217.07 281.939 223.726C285.785 230.381 292.029 233.972 295.886 231.748Z" fill="#D7E8F7"/>
<path d="M314.652 267.151C318.508 264.926 318.517 257.728 314.671 251.073C310.825 244.418 304.581 240.826 300.725 243.051C296.868 245.275 296.859 252.473 300.705 259.129C304.551 265.784 310.795 269.375 314.652 267.151Z" fill="#D7E8F7"/>
<path d="M293.381 233.714C295.608 229.861 292.013 223.622 285.352 219.78C278.69 215.938 271.485 215.946 269.259 219.799C267.032 223.652 270.627 229.891 277.288 233.733C283.95 237.575 291.155 237.567 293.381 233.714Z" fill="#D7E8F7"/>
<path d="M327.353 254.998C329.579 251.145 325.984 244.906 319.323 241.064C312.661 237.222 305.456 237.23 303.23 241.083C301.003 244.936 304.598 251.175 311.26 255.017C317.921 258.859 325.126 258.851 327.353 254.998Z" fill="#D7E8F7"/>
<path d="M278.269 244.723C285.961 244.723 292.197 241.116 292.197 236.667C292.197 232.218 285.961 228.611 278.269 228.611C270.577 228.611 264.342 232.218 264.342 236.667C264.342 241.116 270.577 244.723 278.269 244.723Z" fill="#D7E8F7"/>
<path d="M318.341 246.187C326.033 246.187 332.268 242.581 332.268 238.132C332.268 233.683 326.033 230.076 318.341 230.076C310.649 230.076 304.414 233.683 304.414 238.132C304.414 242.581 310.649 246.187 318.341 246.187Z" fill="#D7E8F7"/>
<path d="M284.619 253.75C291.28 249.908 294.875 243.669 292.649 239.816C290.422 235.963 283.217 235.955 276.556 239.797C269.894 243.639 266.299 249.878 268.526 253.731C270.752 257.584 277.957 257.592 284.619 253.75Z" fill="#D7E8F7"/>
<path d="M320.055 235.001C326.716 231.159 330.311 224.921 328.084 221.068C325.858 217.215 318.653 217.206 311.991 221.049C305.33 224.891 301.735 231.129 303.962 234.982C306.188 238.835 313.393 238.844 320.055 235.001Z" fill="#D7E8F7"/>
<path d="M294.635 258.396C298.481 251.741 298.473 244.543 294.616 242.318C290.759 240.094 284.515 243.685 280.669 250.34C276.824 256.996 276.832 264.194 280.689 266.418C284.545 268.643 290.789 265.051 294.635 258.396Z" fill="#D7E8F7"/>
<path d="M315.941 224.458C319.787 217.803 319.778 210.604 315.921 208.38C312.065 206.155 305.821 209.747 301.975 216.402C298.129 223.057 298.138 230.256 301.994 232.48C305.851 234.705 312.095 231.113 315.941 224.458Z" fill="#D7E8F7"/>
<path d="M297.572 254.812C307.018 254.812 314.676 247.162 314.676 237.725C314.676 228.287 307.018 220.637 297.572 220.637C288.126 220.637 280.468 228.287 280.468 237.725C280.468 247.162 288.126 254.812 297.572 254.812Z" fill="#95B5E8"/>
<path d="M307.408 108.96C302.608 108.96 297.855 109.904 293.421 111.739C288.986 113.574 284.956 116.264 281.562 119.655C278.168 123.046 275.476 127.072 273.639 131.502C271.802 135.933 270.857 140.681 270.857 145.477H343.96C343.96 140.681 343.014 135.933 341.177 131.502C339.34 127.072 336.648 123.046 333.254 119.655C329.86 116.264 325.83 113.574 321.396 111.739C316.961 109.904 312.208 108.96 307.408 108.96Z" fill="#D7E8F7"/>
<path d="M268.281 127.218C265.881 127.218 263.504 127.691 261.287 128.608C259.07 129.526 257.055 130.871 255.358 132.566C253.661 134.262 252.315 136.274 251.396 138.49C250.478 140.705 250.005 143.079 250.005 145.477H286.557C286.557 143.079 286.084 140.705 285.166 138.49C284.247 136.274 282.901 134.262 281.204 132.566C279.507 130.871 277.492 129.526 275.275 128.608C273.058 127.691 270.681 127.218 268.281 127.218Z" fill="#D7E8F7"/>
<path d="M371.005 136.348C369.805 136.348 368.617 136.584 367.508 137.043C366.4 137.501 365.392 138.174 364.544 139.022C363.695 139.869 363.022 140.876 362.563 141.983C362.104 143.091 361.867 144.278 361.867 145.477H380.143C380.143 144.278 379.907 143.091 379.448 141.983C378.988 140.876 378.315 139.869 377.467 139.022C376.618 138.174 375.611 137.501 374.502 137.043C373.394 136.584 372.205 136.348 371.005 136.348Z" fill="#D7E8F7"/>
<path d="M348.805 122.378C345.768 122.378 342.762 122.975 339.957 124.136C337.152 125.297 334.603 126.998 332.456 129.143C330.309 131.288 328.606 133.835 327.444 136.637C326.282 139.44 325.684 142.444 325.684 145.477H371.925C371.925 142.444 371.327 139.44 370.165 136.637C369.003 133.835 367.3 131.288 365.153 129.143C363.006 126.998 360.458 125.297 357.652 124.136C354.847 122.975 351.841 122.378 348.805 122.378Z" fill="#D7E8F7"/>
<path d="M243.872 145.477H385.177" stroke="#95B5E8" stroke-width="2" stroke-miterlimit="10"/>
<path d="M67.8957 47.2538C70.811 47.2538 73.6978 47.8275 76.3912 48.9421C79.0846 50.0567 81.5319 51.6904 83.5933 53.7499C85.6548 55.8094 87.29 58.2544 88.4057 60.9453C89.5213 63.6362 90.0955 66.5203 90.0955 69.4329H45.6958C45.6958 66.5203 46.27 63.6362 47.3857 60.9453C48.5013 58.2544 50.1365 55.8094 52.198 53.7499C54.2594 51.6904 56.7067 50.0567 59.4001 48.9421C62.0936 47.8275 64.9803 47.2538 67.8957 47.2538Z" fill="#E8F1F9"/>
<path d="M91.66 58.3434C93.1177 58.3434 94.561 58.6302 95.9077 59.1875C97.2545 59.7448 98.4781 60.5616 99.5088 61.5914C100.54 62.6212 101.357 63.8437 101.915 65.1891C102.473 66.5346 102.76 67.9766 102.76 69.4329H80.5601C80.5601 67.9766 80.8472 66.5346 81.405 65.1891C81.9628 63.8437 82.7804 62.6212 83.8111 61.5914C84.8419 60.5616 86.0655 59.7448 87.4122 59.1875C88.7589 58.6302 90.2023 58.3434 91.66 58.3434Z" fill="#E8F1F9"/>
<path d="M29.2694 63.8881C29.9983 63.8881 30.72 64.0315 31.3933 64.3102C32.0667 64.5888 32.6785 64.9973 33.1939 65.5122C33.7092 66.027 34.118 66.6383 34.3969 67.311C34.6759 67.9837 34.8194 68.7048 34.8194 69.4329H23.7195C23.7195 68.7048 23.863 67.9837 24.1419 67.311C24.4209 66.6383 24.8297 66.027 25.345 65.5122C25.8604 64.9973 26.4722 64.5888 27.1456 64.3102C27.8189 64.0315 28.5406 63.8881 29.2694 63.8881Z" fill="#E8F1F9"/>
<path d="M42.7532 55.4035C44.5973 55.4035 46.4233 55.7664 48.1271 56.4714C49.8308 57.1765 51.3788 58.2099 52.6828 59.5126C53.9868 60.8154 55.0211 62.362 55.7268 64.0641C56.4325 65.7662 56.7957 67.5906 56.7957 69.4329H28.7107C28.7107 67.5906 29.0739 65.7662 29.7796 64.0641C30.4853 62.362 31.5197 60.8154 32.8236 59.5126C34.1276 58.2099 35.6757 57.1765 37.3794 56.4714C39.0831 55.7664 40.9091 55.4035 42.7532 55.4035Z" fill="#E8F1F9"/>
<path d="M106.485 69.4329H20.6621" stroke="#95B5E8" stroke-width="2" stroke-miterlimit="10"/>
</g>
<defs>
<clipPath id="clip0_2_216">
<rect width="387" height="409" fill="white"/>
</clipPath>
</defs>
</svg>
