<svg width="28" height="28" viewBox="0 0 28 28" fill="none" xmlns="http://www.w3.org/2000/svg">
<path d="M14 23.1875C19.0741 23.1875 23.1875 19.0741 23.1875 14C23.1875 8.92588 19.0741 4.8125 14 4.8125C8.92588 4.8125 4.8125 8.92588 4.8125 14C4.8125 19.0741 8.92588 23.1875 14 23.1875Z" fill="#FEB029"/>
<path d="M14 21.4375C18.1076 21.4375 21.4375 18.1076 21.4375 14C21.4375 9.89238 18.1076 6.5625 14 6.5625C9.89238 6.5625 6.5625 9.89238 6.5625 14C6.5625 18.1076 9.89238 21.4375 14 21.4375Z" fill="#F3C52D"/>
<path d="M6.88276 16.45C7.31219 17.7065 8.0706 18.8248 9.07903 19.6886C10.0875 20.5524 11.309 21.1301 12.6165 21.3614C13.924 21.5928 15.2696 21.4694 16.5133 21.0041C17.7569 20.5388 18.853 19.7486 19.6875 18.7158L19.6302 18.5491L13.9173 14.0346L11.5023 7C10.5785 7.31713 9.72615 7.81314 8.994 8.45969C8.26185 9.10624 7.66423 9.89067 7.23526 10.7682C6.80629 11.6457 6.55437 12.5991 6.49389 13.574C6.4334 14.5489 6.56555 15.5262 6.88276 16.45Z" fill="#FECE2F"/>
<path d="M23.625 3.9375H22.3125C22.1965 3.9375 22.0852 3.98359 22.0032 4.06564C21.9211 4.14769 21.875 4.25897 21.875 4.375C21.875 4.49103 21.9211 4.60231 22.0032 4.68436C22.0852 4.76641 22.1965 4.8125 22.3125 4.8125H22.5689L21.4248 5.95656C21.383 5.99692 21.3497 6.0452 21.3268 6.09857C21.3039 6.15195 21.2918 6.20936 21.2913 6.26745C21.2908 6.32554 21.3018 6.38315 21.3238 6.43692C21.3458 6.49068 21.3783 6.53953 21.4194 6.58061C21.4605 6.62169 21.5093 6.65417 21.5631 6.67617C21.6169 6.69817 21.6745 6.70924 21.7326 6.70873C21.7907 6.70823 21.8481 6.69616 21.9014 6.67323C21.9548 6.6503 22.0031 6.61697 22.0434 6.57519L23.1875 5.43112V5.6875C23.1875 5.80353 23.2336 5.91481 23.3157 5.99686C23.3977 6.07891 23.509 6.125 23.625 6.125C23.741 6.125 23.8523 6.07891 23.9344 5.99686C24.0164 5.91481 24.0625 5.80353 24.0625 5.6875V4.375C24.0625 4.25897 24.0164 4.14769 23.9344 4.06564C23.8523 3.98359 23.741 3.9375 23.625 3.9375Z" fill="#FD9226"/>
<path d="M23.625 21.875C23.509 21.875 23.3977 21.9211 23.3156 22.0031C23.2336 22.0852 23.1875 22.1965 23.1875 22.3125V22.5689L22.0434 21.4248C21.9609 21.3451 21.8504 21.301 21.7357 21.302C21.621 21.303 21.5113 21.349 21.4301 21.4301C21.349 21.5113 21.303 21.621 21.302 21.7357C21.301 21.8504 21.3451 21.9609 21.4248 22.0434L22.5689 23.1875H22.3125C22.1965 23.1875 22.0852 23.2336 22.0031 23.3156C21.9211 23.3977 21.875 23.509 21.875 23.625C21.875 23.741 21.9211 23.8523 22.0031 23.9344C22.0852 24.0164 22.1965 24.0625 22.3125 24.0625H23.625C23.741 24.0625 23.8523 24.0164 23.9344 23.9344C24.0164 23.8523 24.0625 23.741 24.0625 23.625V22.3125C24.0625 22.1965 24.0164 22.0852 23.9344 22.0031C23.8523 21.9211 23.741 21.875 23.625 21.875Z" fill="#FD9226"/>
<path d="M5.43113 4.8125H5.6875C5.80353 4.8125 5.91481 4.76641 5.99686 4.68436C6.07891 4.60231 6.125 4.49103 6.125 4.375C6.125 4.25897 6.07891 4.14769 5.99686 4.06564C5.91481 3.98359 5.80353 3.9375 5.6875 3.9375H4.375C4.25897 3.9375 4.14769 3.98359 4.06564 4.06564C3.98359 4.14769 3.9375 4.25897 3.9375 4.375V5.6875C3.9375 5.80353 3.98359 5.91481 4.06564 5.99686C4.14769 6.07891 4.25897 6.125 4.375 6.125C4.49103 6.125 4.60231 6.07891 4.68436 5.99686C4.76641 5.91481 4.8125 5.80353 4.8125 5.6875V5.43113L5.95656 6.57519C6.03908 6.65488 6.14959 6.69898 6.2643 6.69798C6.37901 6.69699 6.48874 6.65097 6.56986 6.56986C6.65097 6.48874 6.69699 6.37901 6.69798 6.2643C6.69898 6.14959 6.65488 6.03908 6.57519 5.95656L5.43113 4.8125Z" fill="#FD9226"/>
<path d="M5.95656 21.4248L4.8125 22.5689V22.3125C4.8125 22.1965 4.76641 22.0852 4.68436 22.0031C4.60231 21.9211 4.49103 21.875 4.375 21.875C4.25897 21.875 4.14769 21.9211 4.06564 22.0031C3.98359 22.0852 3.9375 22.1965 3.9375 22.3125V23.625C3.9375 23.741 3.98359 23.8523 4.06564 23.9344C4.14769 24.0164 4.25897 24.0625 4.375 24.0625H5.6875C5.80353 24.0625 5.91481 24.0164 5.99686 23.9344C6.07891 23.8523 6.125 23.741 6.125 23.625C6.125 23.509 6.07891 23.3977 5.99686 23.3156C5.91481 23.2336 5.80353 23.1875 5.6875 23.1875H5.43113L6.57519 22.0434C6.65488 21.9609 6.69898 21.8504 6.69798 21.7357C6.69699 21.621 6.65097 21.5113 6.56986 21.4301C6.48874 21.349 6.37901 21.303 6.2643 21.302C6.14959 21.301 6.03908 21.3451 5.95656 21.4248Z" fill="#FD9226"/>
<path d="M14 1.75C13.884 1.75 13.7727 1.79609 13.6906 1.87814C13.6086 1.96019 13.5625 2.07147 13.5625 2.1875V3.0625C13.5625 3.17853 13.6086 3.28981 13.6906 3.37186C13.7727 3.45391 13.884 3.5 14 3.5C14.116 3.5 14.2273 3.45391 14.3094 3.37186C14.3914 3.28981 14.4375 3.17853 14.4375 3.0625V2.1875C14.4375 2.07147 14.3914 1.96019 14.3094 1.87814C14.2273 1.79609 14.116 1.75 14 1.75Z" fill="#FBB540"/>
<path d="M3.0625 13.5625H2.1875C2.07147 13.5625 1.96019 13.6086 1.87814 13.6906C1.79609 13.7727 1.75 13.884 1.75 14C1.75 14.116 1.79609 14.2273 1.87814 14.3094C1.96019 14.3914 2.07147 14.4375 2.1875 14.4375H3.0625C3.17853 14.4375 3.28981 14.3914 3.37186 14.3094C3.45391 14.2273 3.5 14.116 3.5 14C3.5 13.884 3.45391 13.7727 3.37186 13.6906C3.28981 13.6086 3.17853 13.5625 3.0625 13.5625Z" fill="#FBB540"/>
<path d="M14 24.5C13.884 24.5 13.7727 24.5461 13.6906 24.6281C13.6086 24.7102 13.5625 24.8215 13.5625 24.9375V25.8125C13.5625 25.9285 13.6086 26.0398 13.6906 26.1219C13.7727 26.2039 13.884 26.25 14 26.25C14.116 26.25 14.2273 26.2039 14.3094 26.1219C14.3914 26.0398 14.4375 25.9285 14.4375 25.8125V24.9375C14.4375 24.8215 14.3914 24.7102 14.3094 24.6281C14.2273 24.5461 14.116 24.5 14 24.5Z" fill="#FBB540"/>
<path d="M25.8125 13.5625H24.9375C24.8215 13.5625 24.7102 13.6086 24.6281 13.6906C24.5461 13.7727 24.5 13.884 24.5 14C24.5 14.116 24.5461 14.2273 24.6281 14.3094C24.7102 14.3914 24.8215 14.4375 24.9375 14.4375H25.8125C25.9285 14.4375 26.0398 14.3914 26.1219 14.3094C26.2039 14.2273 26.25 14.116 26.25 14C26.25 13.884 26.2039 13.7727 26.1219 13.6906C26.0398 13.6086 25.9285 13.5625 25.8125 13.5625Z" fill="#FBB540"/>
</svg>
