<svg width="64" height="64" viewBox="0 0 64 64" fill="none" xmlns="http://www.w3.org/2000/svg">
<path d="M25.875 34.875L33 36.375L38.625 37.125L40.607 36.842C41.8561 35.2755 42.6537 33.3977 42.9136 31.4111C43.1735 29.4245 42.8859 27.4046 42.0819 25.5695C41.2778 23.7344 39.9878 22.1537 38.3511 20.9981C36.7145 19.8425 34.7932 19.1559 32.7949 19.0123C30.7965 18.8687 28.7968 19.2736 27.0118 20.1834C25.2267 21.0931 23.724 22.4731 22.6658 24.1744C21.6077 25.8757 21.0343 27.8337 21.0075 29.8371C20.9808 31.8404 21.5016 33.8131 22.514 35.542L25.875 34.875Z" fill="#FECE2F"/>
<path d="M37.792 44C35.7014 44.0464 33.6216 43.6881 31.667 42.945C29.9235 42.2771 28.0665 41.9561 26.2 42C24.3308 41.9553 22.4708 42.2766 20.725 42.946C19.9025 43.2473 19.0602 43.4912 18.204 43.676C17.9441 43.729 17.6737 43.6767 17.4524 43.5304C17.2312 43.3841 17.077 43.1559 17.024 42.896C16.9709 42.6361 17.0233 42.3657 17.1696 42.1444C17.3159 41.9232 17.5441 41.769 17.804 41.716C18.5748 41.5488 19.333 41.3279 20.073 41.055C22.0282 40.3117 24.1087 39.9534 26.2 40C28.2902 39.9537 30.3697 40.3119 32.324 41.055C34.0678 41.7229 35.9252 42.0439 37.792 42C39.6614 42.0443 41.5215 41.7233 43.268 41.055C44.094 40.7513 44.9404 40.5063 45.801 40.322C46.0609 40.2689 46.3312 40.3213 46.5525 40.4676C46.7738 40.6139 46.9279 40.8421 46.981 41.102C47.034 41.3619 46.9817 41.6322 46.8354 41.8535C46.6891 42.0748 46.4609 42.2289 46.201 42.282C45.4268 42.4496 44.6653 42.6711 43.922 42.945C41.9657 43.6884 39.8842 44.0467 37.792 44V44Z" fill="#AEDEE2"/>
<path d="M22 48.672C21.757 48.672 21.5223 48.5836 21.3398 48.4232C21.1572 48.2629 21.0393 48.0415 21.0081 47.8005C20.9768 47.5596 21.0344 47.3155 21.17 47.1139C21.3056 46.9122 21.51 46.7669 21.745 46.705C22.4519 46.5207 23.1683 46.3749 23.891 46.268C25.9501 45.9055 28.0599 45.9449 30.104 46.384C30.7571 46.5145 31.4167 46.61 32.08 46.67C32.3445 46.6912 32.5898 46.8166 32.7619 47.0187C32.934 47.2208 33.0187 47.4829 32.9975 47.7475C32.9763 48.012 32.8508 48.2573 32.6488 48.4294C32.4467 48.6015 32.1845 48.6862 31.92 48.665C31.1901 48.5982 30.4641 48.4937 29.745 48.352C27.919 47.9548 26.033 47.9181 24.193 48.244C23.5405 48.3413 22.8936 48.4728 22.255 48.638C22.1718 48.6604 22.0861 48.6719 22 48.672V48.672Z" fill="#A8D6DA"/>
<path d="M35.6 55.2C35.3878 55.0409 35.1211 54.9725 34.8586 55.0101C34.596 55.0476 34.3591 55.1878 34.2 55.4L33 57V52C33 51.7348 32.8946 51.4804 32.7071 51.2929C32.5196 51.1054 32.2652 51 32 51C31.7348 51 31.4804 51.1054 31.2929 51.2929C31.1054 51.4804 31 51.7348 31 52V57L29.8 55.4C29.6409 55.1878 29.404 55.0476 29.1414 55.0101C28.8789 54.9725 28.6122 55.0409 28.4 55.2C28.1878 55.3591 28.0476 55.596 28.0101 55.8586C27.9725 56.1211 28.0409 56.3878 28.2 56.6L31.2 60.6C31.213 60.617 31.234 60.624 31.247 60.639C31.3484 60.7383 31.4604 60.8262 31.581 60.901C31.7111 60.9661 31.8545 61 32 61C32.1455 61 32.2889 60.9661 32.419 60.901C32.5396 60.8262 32.6516 60.7383 32.753 60.639C32.766 60.624 32.787 60.617 32.8 60.6L35.8 56.6C35.9591 56.3878 36.0275 56.1211 35.99 55.8586C35.9524 55.596 35.8122 55.3591 35.6 55.2Z" fill="#FD9226"/>
<path d="M25.291 29C25.1944 29.0002 25.0984 28.986 25.006 28.958C24.7518 28.8825 24.538 28.7091 24.4116 28.476C24.2852 28.2429 24.2566 27.9692 24.332 27.715C24.7122 26.4415 25.4033 25.2827 26.343 24.343C27.2828 23.4033 28.4416 22.7122 29.715 22.332C29.9686 22.2586 30.2408 22.2884 30.4725 22.415C30.7041 22.5415 30.8763 22.7545 30.9516 23.0075C31.0268 23.2605 30.9989 23.533 30.8741 23.7656C30.7492 23.9982 30.5375 24.1719 30.285 24.249C29.3303 24.5342 28.4616 25.0524 27.757 25.757C27.0525 26.4615 26.5342 27.3303 26.249 28.285C26.1876 28.4914 26.0612 28.6725 25.8886 28.8014C25.716 28.9302 25.5064 28.9999 25.291 29Z" fill="#F3C52D"/>
<path d="M42.606 20.394C42.4082 20.3939 42.2149 20.3353 42.0505 20.2254C41.8861 20.1155 41.758 19.9593 41.6823 19.7766C41.6066 19.5939 41.5868 19.3929 41.6254 19.199C41.664 19.005 41.7592 18.8268 41.899 18.687L43.314 17.272C43.5026 17.0898 43.7552 16.989 44.0174 16.9913C44.2796 16.9936 44.5304 17.0988 44.7158 17.2842C44.9012 17.4696 45.0064 17.7204 45.0087 17.9826C45.0109 18.2448 44.9101 18.4974 44.728 18.686L43.313 20.1C43.2202 20.193 43.1101 20.2669 42.9887 20.3173C42.8674 20.3678 42.7374 20.3938 42.606 20.394Z" fill="#FBB540"/>
<path d="M21.394 20.394C21.1288 20.3939 20.8745 20.2885 20.687 20.101L19.272 18.686C19.0898 18.4974 18.989 18.2448 18.9913 17.9826C18.9936 17.7204 19.0988 17.4696 19.2842 17.2842C19.4696 17.0988 19.7204 16.9936 19.9826 16.9913C20.2448 16.989 20.4974 17.0898 20.686 17.272L22.1 18.687C22.2398 18.8268 22.335 19.005 22.3736 19.199C22.4121 19.3929 22.3923 19.5939 22.3167 19.7766C22.241 19.9593 22.1129 20.1155 21.9484 20.2254C21.784 20.3353 21.5907 20.3939 21.393 20.394H21.394Z" fill="#FBB540"/>
<path d="M17 31H13C12.7348 31 12.4804 30.8946 12.2929 30.7071C12.1054 30.5196 12 30.2652 12 30C12 29.7348 12.1054 29.4804 12.2929 29.2929C12.4804 29.1054 12.7348 29 13 29H17C17.2652 29 17.5196 29.1054 17.7071 29.2929C17.8946 29.4804 18 29.7348 18 30C18 30.2652 17.8946 30.5196 17.7071 30.7071C17.5196 30.8946 17.2652 31 17 31Z" fill="#FECE2F"/>
<path d="M51 31H47C46.7348 31 46.4804 30.8946 46.2929 30.7071C46.1054 30.5196 46 30.2652 46 30C46 29.7348 46.1054 29.4804 46.2929 29.2929C46.4804 29.1054 46.7348 29 47 29H51C51.2652 29 51.5196 29.1054 51.7071 29.2929C51.8946 29.4804 52 29.7348 52 30C52 30.2652 51.8946 30.5196 51.7071 30.7071C51.5196 30.8946 51.2652 31 51 31Z" fill="#FECE2F"/>
<path d="M32 16C31.7348 16 31.4804 15.8946 31.2929 15.7071C31.1054 15.5196 31 15.2652 31 15V12C31 11.7348 31.1054 11.4804 31.2929 11.2929C31.4804 11.1054 31.7348 11 32 11C32.2652 11 32.5196 11.1054 32.7071 11.2929C32.8946 11.4804 33 11.7348 33 12V15C33 15.2652 32.8946 15.5196 32.7071 15.7071C32.5196 15.8946 32.2652 16 32 16Z" fill="#FECE2F"/>
<path d="M56 10C56 9.20435 55.6839 8.44129 55.1213 7.87868C54.5587 7.31607 53.7956 7 53 7H52C51.2044 7 50.4413 7.31607 49.8787 7.87868C49.3161 8.44129 49 9.20435 49 10C48.2044 10 47.4413 10.3161 46.8787 10.8787C46.3161 11.4413 46 12.2044 46 13C46 13.7956 46.3161 14.5587 46.8787 15.1213C47.4413 15.6839 48.2044 16 49 16H56C56.7956 16 57.5587 15.6839 58.1213 15.1213C58.6839 14.5587 59 13.7956 59 13C59 12.2044 58.6839 11.4413 58.1213 10.8787C57.5587 10.3161 56.7956 10 56 10V10Z" fill="#B3E4E8"/>
<path d="M15 7C15 6.20435 14.6839 5.44129 14.1213 4.87868C13.5587 4.31607 12.7956 4 12 4H11C10.2044 4 9.44129 4.31607 8.87868 4.87868C8.31607 5.44129 8 6.20435 8 7C7.20435 7 6.44129 7.31607 5.87868 7.87868C5.31607 8.44129 5 9.20435 5 10C5 10.7956 5.31607 11.5587 5.87868 12.1213C6.44129 12.6839 7.20435 13 8 13H15C15.7956 13 16.5587 12.6839 17.1213 12.1213C17.6839 11.5587 18 10.7956 18 10C18 9.20435 17.6839 8.44129 17.1213 7.87868C16.5587 7.31607 15.7956 7 15 7V7Z" fill="#AEDEE2"/>
<path d="M61 38C58.9084 38.0465 56.8276 37.6883 54.872 36.945C53.1268 36.2772 51.2681 35.9562 49.4 36C47.5302 35.9556 45.6698 36.2766 43.923 36.945C41.9665 37.6888 39.8846 38.0471 37.792 38C35.7014 38.0464 33.6216 37.6882 31.667 36.945C29.9236 36.2771 28.0665 35.9561 26.2 36C24.3312 35.9554 22.4717 36.2765 20.726 36.945C18.7711 37.6881 16.6909 38.0464 14.6 38C12.5097 38.0465 10.4302 37.6883 8.476 36.945C6.72968 36.2762 4.86947 35.9552 3 36C2.73478 36 2.48043 35.8947 2.29289 35.7071C2.10536 35.5196 2 35.2652 2 35C2 34.7348 2.10536 34.4804 2.29289 34.2929C2.48043 34.1054 2.73478 34 3 34C5.09026 33.9536 7.16977 34.3118 9.124 35.055C10.8703 35.724 12.7305 36.0451 14.6 36C16.4685 36.0445 18.3276 35.7235 20.073 35.055C22.0283 34.3118 24.1088 33.9536 26.2 34C28.2903 33.9537 30.3697 34.3119 32.324 35.055C34.0678 35.7229 35.9252 36.0439 37.792 36C39.6614 36.0443 41.5215 35.7233 43.268 35.055C45.2248 34.3112 47.3071 33.953 49.4 34C51.4912 33.9535 53.5718 34.3117 55.527 35.055C57.2725 35.7229 59.1316 36.0439 61 36C61.2652 36 61.5196 36.1054 61.7071 36.2929C61.8946 36.4804 62 36.7348 62 37C62 37.2652 61.8946 37.5196 61.7071 37.7071C61.5196 37.8947 61.2652 38 61 38Z" fill="#B3E4E8"/>
</svg>
